<?xml version="1.0" encoding="UTF-8" ?>
<svg xmlns="http://www.w3.org/2000/svg" version="1.1" width="600" height="500">
  <polygon points="57,28 253,11 234,94" style="fill:rgb(255,200,100)" stroke="rgb(255,200,100)" stroke-width="2" />
  <polygon points="178,100 57,28 234,94" style="fill:rgb(255,200,100)" stroke="rgb(255,200,100)" stroke-width="2" />
  <polygon points="127,105 178,100 57,28" style="fill:rgb(255,200,100)" stroke="rgb(255,200,100)" stroke-width="2" />
  <polygon points="66,111 127,105 57,28" style="fill:rgb(255,200,100)" stroke="rgb(255,200,100)" stroke-width="2" />
  <polygon points="178,357 127,105 178,100" style="fill:rgb(255,200,100)" stroke="rgb(255,200,100)" stroke-width="2" />
  <polygon points="123,359 178,357 127,105" style="fill:rgb(255,200,100)" stroke="rgb(255,200,100)" stroke-width="2" />
  <polygon points="176,399 123,359 178,357" style="fill:rgb(255,200,100)" stroke="rgb(255,200,100)" stroke-width="2" />
  <polygon points="167,443 176,399 123,359" style="fill:rgb(255,200,100)" stroke="rgb(255,200,100)" stroke-width="2" />
  <polygon points="115,380 167,443 123,359" style="fill:rgb(255,200,100)" stroke="rgb(255,200,100)" stroke-width="2" />
  <polygon points="102,392 115,380 167,443" style="fill:rgb(255,200,100)" stroke="rgb(255,200,100)" stroke-width="2" />
  <polygon points="91,396 102,392 167,443" style="fill:rgb(255,200,100)" stroke="rgb(255,200,100)" stroke-width="2" />
  <polygon points="154,465 91,396 167,443" style="fill:rgb(255,200,100)" stroke="rgb(255,200,100)" stroke-width="2" />
  <polygon points="140,476 154,465 91,396" style="fill:rgb(255,200,100)" stroke="rgb(255,200,100)" stroke-width="2" />
  <polygon points="124,486 140,476 91,396" style="fill:rgb(255,200,100)" stroke="rgb(255,200,100)" stroke-width="2" />
  <polygon points="104,493 124,486 91,396" style="fill:rgb(255,200,100)" stroke="rgb(255,200,100)" stroke-width="2" />
  <polygon points="77,494 104,493 91,396" style="fill:rgb(255,200,100)" stroke="rgb(255,200,100)" stroke-width="2" />
  <polygon points="76,396 77,494 91,396" style="fill:rgb(255,200,100)" stroke="rgb(255,200,100)" stroke-width="2" />
  <polygon points="64,391 76,396 77,494" style="fill:rgb(255,200,100)" stroke="rgb(255,200,100)" stroke-width="2" />
  <polygon points="59,490 64,391 77,494" style="fill:rgb(255,200,100)" stroke="rgb(255,200,100)" stroke-width="2" />
  <polygon points="41,478 59,490 64,391" style="fill:rgb(255,200,100)" stroke="rgb(255,200,100)" stroke-width="2" />
  <polygon points="28,464 41,478 64,391" style="fill:rgb(255,200,100)" stroke="rgb(255,200,100)" stroke-width="2" />
  <polygon points="17,447 28,464 64,391" style="fill:rgb(255,200,100)" stroke="rgb(255,200,100)" stroke-width="2" />
  <polygon points="10,424 17,447 64,391" style="fill:rgb(255,200,100)" stroke="rgb(255,200,100)" stroke-width="2" />
  <polygon points="6,401 10,424 64,391" style="fill:rgb(255,200,100)" stroke="rgb(255,200,100)" stroke-width="2" />
  <polygon points="5,377 6,401 64,391" style="fill:rgb(255,200,100)" stroke="rgb(255,200,100)" stroke-width="2" />
  <polygon points="52,379 5,377 64,391" style="fill:rgb(255,200,100)" stroke="rgb(255,200,100)" stroke-width="2" />
  <polygon points="46,363 52,379 5,377" style="fill:rgb(255,200,100)" stroke="rgb(255,200,100)" stroke-width="2" />
  <polygon points="5,342 46,363 5,377" style="fill:rgb(255,200,100)" stroke="rgb(255,200,100)" stroke-width="2" />
  <polygon points="43,337 5,342 46,363" style="fill:rgb(255,200,100)" stroke="rgb(255,200,100)" stroke-width="2" />
  <polygon points="43,316 43,337 5,342" style="fill:rgb(255,200,100)" stroke="rgb(255,200,100)" stroke-width="2" />
  <polygon points="6,322 43,316 5,342" style="fill:rgb(255,200,100)" stroke="rgb(255,200,100)" stroke-width="2" />
  <polygon points="262,38 308,38 332,86" style="fill:rgb(255,200,100)" stroke="rgb(255,200,100)" stroke-width="2" />
  <polygon points="335,44 332,86 308,38" style="fill:rgb(255,200,100)" stroke="rgb(255,200,100)" stroke-width="2" />
  <polygon points="265,137 262,38 332,86" style="fill:rgb(255,200,100)" stroke="rgb(255,200,100)" stroke-width="2" />
  <polygon points="329,266 265,137 332,86" style="fill:rgb(255,200,100)" stroke="rgb(255,200,100)" stroke-width="2" />
  <polygon points="269,466 329,266 265,137" style="fill:rgb(255,200,100)" stroke="rgb(255,200,100)" stroke-width="2" />
  <polygon points="320,459 269,466 329,266" style="fill:rgb(255,200,100)" stroke="rgb(255,200,100)" stroke-width="2" />
  <polygon points="327,456 320,459 329,266" style="fill:rgb(255,200,100)" stroke="rgb(255,200,100)" stroke-width="2" />
  <polygon points="364,52 335,44 332,86" style="fill:rgb(255,200,100)" stroke="rgb(255,200,100)" stroke-width="2" />
  <polygon points="392,65 364,52 332,86" style="fill:rgb(255,200,100)" stroke="rgb(255,200,100)" stroke-width="2" />
  <polygon points="350,92 392,65 332,86" style="fill:rgb(255,200,100)" stroke="rgb(255,200,100)" stroke-width="2" />
  <polygon points="364,105 350,92 392,65" style="fill:rgb(255,200,100)" stroke="rgb(255,200,100)" stroke-width="2" />
  <polygon points="380,130 364,105 392,65" style="fill:rgb(255,200,100)" stroke="rgb(255,200,100)" stroke-width="2" />
  <polygon points="414,80 380,130 392,65" style="fill:rgb(255,200,100)" stroke="rgb(255,200,100)" stroke-width="2" />
  <polygon points="427,92 414,80 380,130" style="fill:rgb(255,200,100)" stroke="rgb(255,200,100)" stroke-width="2" />
  <polygon points="440,114 427,92 380,130" style="fill:rgb(255,200,100)" stroke="rgb(255,200,100)" stroke-width="2" />
  <polygon points="449,133 440,114 380,130" style="fill:rgb(255,200,100)" stroke="rgb(255,200,100)" stroke-width="2" />
  <polygon points="383,150 449,133 380,130" style="fill:rgb(255,200,100)" stroke="rgb(255,200,100)" stroke-width="2" />
  <polygon points="455,161 383,150 449,133" style="fill:rgb(255,200,100)" stroke="rgb(255,200,100)" stroke-width="2" />
  <polygon points="385,171 455,161 383,150" style="fill:rgb(255,200,100)" stroke="rgb(255,200,100)" stroke-width="2" />
  <polygon points="455,190 385,171 455,161" style="fill:rgb(255,200,100)" stroke="rgb(255,200,100)" stroke-width="2" />
  <polygon points="381,205 455,190 385,171" style="fill:rgb(255,200,100)" stroke="rgb(255,200,100)" stroke-width="2" />
  <polygon points="449,217 381,205 455,190" style="fill:rgb(255,200,100)" stroke="rgb(255,200,100)" stroke-width="2" />
  <polygon points="375,223 449,217 381,205" style="fill:rgb(255,200,100)" stroke="rgb(255,200,100)" stroke-width="2" />
  <polygon points="437,241 375,223 449,217" style="fill:rgb(255,200,100)" stroke="rgb(255,200,100)" stroke-width="2" />
  <polygon points="421,264 437,241 375,223" style="fill:rgb(255,200,100)" stroke="rgb(255,200,100)" stroke-width="2" />
  <polygon points="403,275 421,264 375,223" style="fill:rgb(255,200,100)" stroke="rgb(255,200,100)" stroke-width="2" />
  <polygon points="380,282 403,275 375,223" style="fill:rgb(255,200,100)" stroke="rgb(255,200,100)" stroke-width="2" />
  <polygon points="363,241 380,282 375,223" style="fill:rgb(255,200,100)" stroke="rgb(255,200,100)" stroke-width="2" />
  <polygon points="347,257 363,241 380,282" style="fill:rgb(255,200,100)" stroke="rgb(255,200,100)" stroke-width="2" />
  <polygon points="327,267 347,257 380,282" style="fill:rgb(255,200,100)" stroke="rgb(255,200,100)" stroke-width="2" />
  <polygon points="327,290 327,267 380,282" style="fill:rgb(255,200,100)" stroke="rgb(255,200,100)" stroke-width="2" />
  <polygon points="349,306 327,290 380,282" style="fill:rgb(255,200,100)" stroke="rgb(255,200,100)" stroke-width="2" />
  <polygon points="388,288 349,306 380,282" style="fill:rgb(255,200,100)" stroke="rgb(255,200,100)" stroke-width="2" />
  <polygon points="401,300 388,288 349,306" style="fill:rgb(255,200,100)" stroke="rgb(255,200,100)" stroke-width="2" />
  <polygon points="361,326 401,300 349,306" style="fill:rgb(255,200,100)" stroke="rgb(255,200,100)" stroke-width="2" />
  <polygon points="413,314 361,326 401,300" style="fill:rgb(255,200,100)" stroke="rgb(255,200,100)" stroke-width="2" />
  <polygon points="370,350 413,314 361,326" style="fill:rgb(255,200,100)" stroke="rgb(255,200,100)" stroke-width="2" />
  <polygon points="422,339 370,350 413,314" style="fill:rgb(255,200,100)" stroke="rgb(255,200,100)" stroke-width="2" />
  <polygon points="423,366 422,339 370,350" style="fill:rgb(255,200,100)" stroke="rgb(255,200,100)" stroke-width="2" />
  <polygon points="367,373 423,366 370,350" style="fill:rgb(255,200,100)" stroke="rgb(255,200,100)" stroke-width="2" />
  <polygon points="420,388 367,373 423,366" style="fill:rgb(255,200,100)" stroke="rgb(255,200,100)" stroke-width="2" />
  <polygon points="403,413 420,388 367,373" style="fill:rgb(255,200,100)" stroke="rgb(255,200,100)" stroke-width="2" />
  <polygon points="378,432 403,413 367,373" style="fill:rgb(255,200,100)" stroke="rgb(255,200,100)" stroke-width="2" />
  <polygon points="356,394 378,432 367,373" style="fill:rgb(255,200,100)" stroke="rgb(255,200,100)" stroke-width="2" />
  <polygon points="344,409 356,394 378,432" style="fill:rgb(255,200,100)" stroke="rgb(255,200,100)" stroke-width="2" />
  <polygon points="356,444 344,409 378,432" style="fill:rgb(255,200,100)" stroke="rgb(255,200,100)" stroke-width="2" />
  <polygon points="327,456 356,444 344,409" style="fill:rgb(255,200,100)" stroke="rgb(255,200,100)" stroke-width="2" />
  <polygon points="325,419 327,456 344,409" style="fill:rgb(255,200,100)" stroke="rgb(255,200,100)" stroke-width="2" />
  <polygon points="540,37 591,46 536,351" style="fill:rgb(255,200,100)" stroke="rgb(255,200,100)" stroke-width="2" />
  <polygon points="486,343 540,37 536,351" style="fill:rgb(255,200,100)" stroke="rgb(255,200,100)" stroke-width="2" />
  <polygon points="485,30 486,343 540,37" style="fill:rgb(255,200,100)" stroke="rgb(255,200,100)" stroke-width="2" />
  <polygon points="494,412 517,414 532,384" style="fill:rgb(255,200,100)" stroke="rgb(255,200,100)" stroke-width="2" />  <polygon points="509,378 494,412 532,384" style="fill:rgb(255,200,100)" stroke="rgb(255,200,100)" stroke-width="2" />  <polygon points="486,380 509,378 494,412" style="fill:rgb(255,200,100)" stroke="rgb(255,200,100)" stroke-width="2" />  <polygon points="466,395 486,380 494,412" style="fill:rgb(255,200,100)" stroke="rgb(255,200,100)" stroke-width="2" />  <polygon points="458,416 466,395 494,412" style="fill:rgb(255,200,100)" stroke="rgb(255,200,100)" stroke-width="2" />  <polygon points="493,435 458,416 494,412" style="fill:rgb(255,200,100)" stroke="rgb(255,200,100)" stroke-width="2" />  <polygon points="463,444 493,435 458,416" style="fill:rgb(255,200,100)" stroke="rgb(255,200,100)" stroke-width="2" />  <polygon points="476,460 463,444 493,435" style="fill:rgb(255,200,100)" stroke="rgb(255,200,100)" stroke-width="2" />  <polygon points="516,435 476,460 493,435" style="fill:rgb(255,200,100)" stroke="rgb(255,200,100)" stroke-width="2" />  <polygon points="494,468 516,435 476,460" style="fill:rgb(255,200,100)" stroke="rgb(255,200,100)" stroke-width="2" />  <polygon points="521,466 494,468 516,435" style="fill:rgb(255,200,100)" stroke="rgb(255,200,100)" stroke-width="2" />  <polygon points="540,457 521,466 516,435" style="fill:rgb(255,200,100)" stroke="rgb(255,200,100)" stroke-width="2" />  <polygon points="548,434 540,457 516,435" style="fill:rgb(255,200,100)" stroke="rgb(255,200,100)" stroke-width="2" />  <polygon points="517,414 548,434 516,435" style="fill:rgb(255,200,100)" stroke="rgb(255,200,100)" stroke-width="2" />  <polygon points="548,409 517,414 548,434" style="fill:rgb(255,200,100)" stroke="rgb(255,200,100)" stroke-width="2" />  <polygon points="541,394 548,409 517,414" style="fill:rgb(255,200,100)" stroke="rgb(255,200,100)" stroke-width="2" />  <polygon points="532,384 541,394 517,414" style="fill:rgb(255,200,100)" stroke="rgb(255,200,100)" stroke-width="2" />
</svg>