<?xml version="1.0" encoding="UTF-8" ?>
<svg xmlns="http://www.w3.org/2000/svg" version="1.1" width="1600" height="500">
  <polygon points="95,28 291,11 272,94" style="fill:rgb(255,200,100)" stroke="rgb(255,200,100)" stroke-width="2" />
  <polygon points="216,100 95,28 272,94" style="fill:rgb(255,200,100)" stroke="rgb(255,200,100)" stroke-width="2" />
  <polygon points="165,105 216,100 95,28" style="fill:rgb(255,200,100)" stroke="rgb(255,200,100)" stroke-width="2" />
  <polygon points="104,111 165,105 95,28" style="fill:rgb(255,200,100)" stroke="rgb(255,200,100)" stroke-width="2" />
  <polygon points="216,357 165,105 216,100" style="fill:rgb(255,200,100)" stroke="rgb(255,200,100)" stroke-width="2" />
  <polygon points="161,359 216,357 165,105" style="fill:rgb(255,200,100)" stroke="rgb(255,200,100)" stroke-width="2" />
  <polygon points="214,399 161,359 216,357" style="fill:rgb(255,200,100)" stroke="rgb(255,200,100)" stroke-width="2" />
  <polygon points="205,443 214,399 161,359" style="fill:rgb(255,200,100)" stroke="rgb(255,200,100)" stroke-width="2" />
  <polygon points="153,380 205,443 161,359" style="fill:rgb(255,200,100)" stroke="rgb(255,200,100)" stroke-width="2" />
  <polygon points="140,392 153,380 205,443" style="fill:rgb(255,200,100)" stroke="rgb(255,200,100)" stroke-width="2" />
  <polygon points="129,396 140,392 205,443" style="fill:rgb(255,200,100)" stroke="rgb(255,200,100)" stroke-width="2" />
  <polygon points="192,465 129,396 205,443" style="fill:rgb(255,200,100)" stroke="rgb(255,200,100)" stroke-width="2" />
  <polygon points="178,476 192,465 129,396" style="fill:rgb(255,200,100)" stroke="rgb(255,200,100)" stroke-width="2" />
  <polygon points="162,486 178,476 129,396" style="fill:rgb(255,200,100)" stroke="rgb(255,200,100)" stroke-width="2" />
  <polygon points="142,493 162,486 129,396" style="fill:rgb(255,200,100)" stroke="rgb(255,200,100)" stroke-width="2" />
  <polygon points="115,494 142,493 129,396" style="fill:rgb(255,200,100)" stroke="rgb(255,200,100)" stroke-width="2" />
  <polygon points="114,396 115,494 129,396" style="fill:rgb(255,200,100)" stroke="rgb(255,200,100)" stroke-width="2" />
  <polygon points="102,391 114,396 115,494" style="fill:rgb(255,200,100)" stroke="rgb(255,200,100)" stroke-width="2" />
  <polygon points="97,490 102,391 115,494" style="fill:rgb(255,200,100)" stroke="rgb(255,200,100)" stroke-width="2" />
  <polygon points="79,478 97,490 102,391" style="fill:rgb(255,200,100)" stroke="rgb(255,200,100)" stroke-width="2" />
  <polygon points="66,464 79,478 102,391" style="fill:rgb(255,200,100)" stroke="rgb(255,200,100)" stroke-width="2" />
  <polygon points="55,447 66,464 102,391" style="fill:rgb(255,200,100)" stroke="rgb(255,200,100)" stroke-width="2" />
  <polygon points="48,424 55,447 102,391" style="fill:rgb(255,200,100)" stroke="rgb(255,200,100)" stroke-width="2" />
  <polygon points="44,401 48,424 102,391" style="fill:rgb(255,200,100)" stroke="rgb(255,200,100)" stroke-width="2" />
  <polygon points="43,377 44,401 102,391" style="fill:rgb(255,200,100)" stroke="rgb(255,200,100)" stroke-width="2" />
  <polygon points="90,379 43,377 102,391" style="fill:rgb(255,200,100)" stroke="rgb(255,200,100)" stroke-width="2" />
  <polygon points="84,363 90,379 43,377" style="fill:rgb(255,200,100)" stroke="rgb(255,200,100)" stroke-width="2" />
  <polygon points="43,342 84,363 43,377" style="fill:rgb(255,200,100)" stroke="rgb(255,200,100)" stroke-width="2" />
  <polygon points="81,337 43,342 84,363" style="fill:rgb(255,200,100)" stroke="rgb(255,200,100)" stroke-width="2" />
  <polygon points="81,316 81,337 43,342" style="fill:rgb(255,200,100)" stroke="rgb(255,200,100)" stroke-width="2" />
  <polygon points="44,322 81,316 43,342" style="fill:rgb(255,200,100)" stroke="rgb(255,200,100)" stroke-width="2" />
  <polygon points="254,238 302,244 302,308" style="fill:rgb(255,200,100)" stroke="rgb(255,200,100)" stroke-width="2" />
  <polygon points="257,334 254,238 302,308" style="fill:rgb(255,200,100)" stroke="rgb(255,200,100)" stroke-width="2" />
  <polygon points="304,335 257,334 302,308" style="fill:rgb(255,200,100)" stroke="rgb(255,200,100)" stroke-width="2" />
  <polygon points="260,367 304,335 257,334" style="fill:rgb(255,200,100)" stroke="rgb(255,200,100)" stroke-width="2" />
  <polygon points="307,345 260,367 304,335" style="fill:rgb(255,200,100)" stroke="rgb(255,200,100)" stroke-width="2" />
  <polygon points="263,384 307,345 260,367" style="fill:rgb(255,200,100)" stroke="rgb(255,200,100)" stroke-width="2" />
  <polygon points="314,353 263,384 307,345" style="fill:rgb(255,200,100)" stroke="rgb(255,200,100)" stroke-width="2" />
  <polygon points="269,409 314,353 263,384" style="fill:rgb(255,200,100)" stroke="rgb(255,200,100)" stroke-width="2" />
  <polygon points="323,358 269,409 314,353" style="fill:rgb(255,200,100)" stroke="rgb(255,200,100)" stroke-width="2" />
  <polygon points="282,432 323,358 269,409" style="fill:rgb(255,200,100)" stroke="rgb(255,200,100)" stroke-width="2" />
  <polygon points="300,449 282,432 323,358" style="fill:rgb(255,200,100)" stroke="rgb(255,200,100)" stroke-width="2" />
  <polygon points="320,463 300,449 323,358" style="fill:rgb(255,200,100)" stroke="rgb(255,200,100)" stroke-width="2" />
  <polygon points="338,465 320,463 323,358" style="fill:rgb(255,200,100)" stroke="rgb(255,200,100)" stroke-width="2" />
  <polygon points="354,465 338,465 323,358" style="fill:rgb(255,200,100)" stroke="rgb(255,200,100)" stroke-width="2" />
  <polygon points="337,361 354,465 323,358" style="fill:rgb(255,200,100)" stroke="rgb(255,200,100)" stroke-width="2" />
  <polygon points="353,361 337,361 354,465" style="fill:rgb(255,200,100)" stroke="rgb(255,200,100)" stroke-width="2" />
  <polygon points="367,349 353,361 354,465" style="fill:rgb(255,200,100)" stroke="rgb(255,200,100)" stroke-width="2" />
  <polygon points="373,462 367,349 354,465" style="fill:rgb(255,200,100)" stroke="rgb(255,200,100)" stroke-width="2" />
  <polygon points="373,329 373,462 367,349" style="fill:rgb(255,200,100)" stroke="rgb(255,200,100)" stroke-width="2" />
  <polygon points="396,452 373,329 373,462" style="fill:rgb(255,200,100)" stroke="rgb(255,200,100)" stroke-width="2" />
  <polygon points="417,432 396,452 373,329" style="fill:rgb(255,200,100)" stroke="rgb(255,200,100)" stroke-width="2" />
  <polygon points="428,415 417,432 373,329" style="fill:rgb(255,200,100)" stroke="rgb(255,200,100)" stroke-width="2" />
  <polygon points="439,378 428,415 373,329" style="fill:rgb(255,200,100)" stroke="rgb(255,200,100)" stroke-width="2" />
  <polygon points="442,338 439,378 373,329" style="fill:rgb(255,200,100)" stroke="rgb(255,200,100)" stroke-width="2" />
  <polygon points="444,294 442,338 373,329" style="fill:rgb(255,200,100)" stroke="rgb(255,200,100)" stroke-width="2" />
  <polygon points="368,185 444,294 373,329" style="fill:rgb(255,200,100)" stroke="rgb(255,200,100)" stroke-width="2" />
  <polygon points="446,178 368,185 444,294" style="fill:rgb(255,200,100)" stroke="rgb(255,200,100)" stroke-width="2" />
  <polygon points="483,41 561,40 537,443" style="fill:rgb(255,200,100)" stroke="rgb(255,200,100)" stroke-width="2" />
  <polygon points="488,441 483,41 537,443" style="fill:rgb(255,200,100)" stroke="rgb(255,200,100)" stroke-width="2" />
  <polygon points="620,157 671,156 593,309" style="fill:rgb(255,200,100)" stroke="rgb(255,200,100)" stroke-width="2" />
  <polygon points="543,327 620,157 593,309" style="fill:rgb(255,200,100)" stroke="rgb(255,200,100)" stroke-width="2" />
  <polygon points="564,463 543,327 593,309" style="fill:rgb(255,200,100)" stroke="rgb(255,200,100)" stroke-width="2" />
  <polygon points="638,453 564,463 593,309" style="fill:rgb(255,200,100)" stroke="rgb(255,200,100)" stroke-width="2" />
  <polygon points="652,321 783,309 766,348" style="fill:rgb(255,200,100)" stroke="rgb(255,200,100)" stroke-width="2" />
  <polygon points="650,346 652,321 766,348" style="fill:rgb(255,200,100)" stroke="rgb(255,200,100)" stroke-width="2" />
  <polygon points="826,307 766,348 783,309" style="fill:rgb(255,200,100)" stroke="rgb(255,200,100)" stroke-width="2" />
  <polygon points="822,348 826,307 766,348" style="fill:rgb(255,200,100)" stroke="rgb(255,200,100)" stroke-width="2" />
  <polygon points="824,291 826,307 783,309" style="fill:rgb(255,200,100)" stroke="rgb(255,200,100)" stroke-width="2" />
  <polygon points="781,296 824,291 783,309" style="fill:rgb(255,200,100)" stroke="rgb(255,200,100)" stroke-width="2" />
  <polygon points="819,275 781,296 824,291" style="fill:rgb(255,200,100)" stroke="rgb(255,200,100)" stroke-width="2" />
  <polygon points="809,257 819,275 781,296" style="fill:rgb(255,200,100)" stroke="rgb(255,200,100)" stroke-width="2" />
  <polygon points="795,242 809,257 781,296" style="fill:rgb(255,200,100)" stroke="rgb(255,200,100)" stroke-width="2" />
  <polygon points="775,288 795,242 781,296" style="fill:rgb(255,200,100)" stroke="rgb(255,200,100)" stroke-width="2" />
  <polygon points="765,282 775,288 795,242" style="fill:rgb(255,200,100)" stroke="rgb(255,200,100)" stroke-width="2" />
  <polygon points="755,279 765,282 795,242" style="fill:rgb(255,200,100)" stroke="rgb(255,200,100)" stroke-width="2" />
  <polygon points="776,232 755,279 795,242" style="fill:rgb(255,200,100)" stroke="rgb(255,200,100)" stroke-width="2" />
  <polygon points="742,279 776,232 755,279" style="fill:rgb(255,200,100)" stroke="rgb(255,200,100)" stroke-width="2" />
  <polygon points="727,282 742,279 776,232" style="fill:rgb(255,200,100)" stroke="rgb(255,200,100)" stroke-width="2" />
  <polygon points="754,227 727,282 776,232" style="fill:rgb(255,200,100)" stroke="rgb(255,200,100)" stroke-width="2" />
  <polygon points="727,226 754,227 727,282" style="fill:rgb(255,200,100)" stroke="rgb(255,200,100)" stroke-width="2" />
  <polygon points="709,232 727,226 727,282" style="fill:rgb(255,200,100)" stroke="rgb(255,200,100)" stroke-width="2" />
  <polygon points="693,240 709,232 727,282" style="fill:rgb(255,200,100)" stroke="rgb(255,200,100)" stroke-width="2" />
  <polygon points="680,250 693,240 727,282" style="fill:rgb(255,200,100)" stroke="rgb(255,200,100)" stroke-width="2" />
  <polygon points="714,290 680,250 727,282" style="fill:rgb(255,200,100)" stroke="rgb(255,200,100)" stroke-width="2" />
  <polygon points="702,301 714,290 680,250" style="fill:rgb(255,200,100)" stroke="rgb(255,200,100)" stroke-width="2" />
  <polygon points="693,314 702,301 680,250" style="fill:rgb(255,200,100)" stroke="rgb(255,200,100)" stroke-width="2" />
  <polygon points="669,265 693,314 680,250" style="fill:rgb(255,200,100)" stroke="rgb(255,200,100)" stroke-width="2" />
  <polygon points="659,288 669,265 693,314" style="fill:rgb(255,200,100)" stroke="rgb(255,200,100)" stroke-width="2" />
  <polygon points="654,308 659,288 693,314" style="fill:rgb(255,200,100)" stroke="rgb(255,200,100)" stroke-width="2" />
  <polygon points="652,321 654,308 693,314" style="fill:rgb(255,200,100)" stroke="rgb(255,200,100)" stroke-width="2" />
  <polygon points="688,350 652,321 693,314" style="fill:rgb(255,200,100)" stroke="rgb(255,200,100)" stroke-width="2" />
  <polygon points="650,346 688,350 652,321" style="fill:rgb(255,200,100)" stroke="rgb(255,200,100)" stroke-width="2" />
  <polygon points="656,375 650,346 688,350" style="fill:rgb(255,200,100)" stroke="rgb(255,200,100)" stroke-width="2" />
  <polygon points="661,391 656,375 688,350" style="fill:rgb(255,200,100)" stroke="rgb(255,200,100)" stroke-width="2" />
  <polygon points="672,408 661,391 688,350" style="fill:rgb(255,200,100)" stroke="rgb(255,200,100)" stroke-width="2" />
  <polygon points="693,365 672,408 688,350" style="fill:rgb(255,200,100)" stroke="rgb(255,200,100)" stroke-width="2" />
  <polygon points="700,375 693,365 672,408" style="fill:rgb(255,200,100)" stroke="rgb(255,200,100)" stroke-width="2" />
  <polygon points="712,384 700,375 672,408" style="fill:rgb(255,200,100)" stroke="rgb(255,200,100)" stroke-width="2" />
  <polygon points="727,392 712,384 672,408" style="fill:rgb(255,200,100)" stroke="rgb(255,200,100)" stroke-width="2" />
  <polygon points="682,420 727,392 672,408" style="fill:rgb(255,200,100)" stroke="rgb(255,200,100)" stroke-width="2" />
  <polygon points="699,432 682,420 727,392" style="fill:rgb(255,200,100)" stroke="rgb(255,200,100)" stroke-width="2" />
  <polygon points="718,439 699,432 727,392" style="fill:rgb(255,200,100)" stroke="rgb(255,200,100)" stroke-width="2" />
  <polygon points="736,441 718,439 727,392" style="fill:rgb(255,200,100)" stroke="rgb(255,200,100)" stroke-width="2" />
  <polygon points="746,394 736,441 727,392" style="fill:rgb(255,200,100)" stroke="rgb(255,200,100)" stroke-width="2" />
  <polygon points="767,393 746,394 736,441" style="fill:rgb(255,200,100)" stroke="rgb(255,200,100)" stroke-width="2" />
  <polygon points="753,442 767,393 736,441" style="fill:rgb(255,200,100)" stroke="rgb(255,200,100)" stroke-width="2" />
  <polygon points="777,444 753,442 767,393" style="fill:rgb(255,200,100)" stroke="rgb(255,200,100)" stroke-width="2" />
  <polygon points="788,388 777,444 767,393" style="fill:rgb(255,200,100)" stroke="rgb(255,200,100)" stroke-width="2" />
  <polygon points="806,382 788,388 777,444" style="fill:rgb(255,200,100)" stroke="rgb(255,200,100)" stroke-width="2" />
  <polygon points="863,38 909,38 933,86" style="fill:rgb(255,200,100)" stroke="rgb(255,200,100)" stroke-width="2" />
  <polygon points="936,44 933,86 909,38" style="fill:rgb(255,200,100)" stroke="rgb(255,200,100)" stroke-width="2" />
  <polygon points="866,137 863,38 933,86" style="fill:rgb(255,200,100)" stroke="rgb(255,200,100)" stroke-width="2" />
  <polygon points="930,266 866,137 933,86" style="fill:rgb(255,200,100)" stroke="rgb(255,200,100)" stroke-width="2" />
  <polygon points="870,466 930,266 866,137" style="fill:rgb(255,200,100)" stroke="rgb(255,200,100)" stroke-width="2" />
  <polygon points="921,459 870,466 930,266" style="fill:rgb(255,200,100)" stroke="rgb(255,200,100)" stroke-width="2" />
  <polygon points="928,456 921,459 930,266" style="fill:rgb(255,200,100)" stroke="rgb(255,200,100)" stroke-width="2" />
  <polygon points="965,52 936,44 933,86" style="fill:rgb(255,200,100)" stroke="rgb(255,200,100)" stroke-width="2" />
  <polygon points="993,65 965,52 933,86" style="fill:rgb(255,200,100)" stroke="rgb(255,200,100)" stroke-width="2" />
  <polygon points="951,92 993,65 933,86" style="fill:rgb(255,200,100)" stroke="rgb(255,200,100)" stroke-width="2" />
  <polygon points="965,105 951,92 993,65" style="fill:rgb(255,200,100)" stroke="rgb(255,200,100)" stroke-width="2" />
  <polygon points="981,130 965,105 993,65" style="fill:rgb(255,200,100)" stroke="rgb(255,200,100)" stroke-width="2" />
  <polygon points="1015,80 981,130 993,65" style="fill:rgb(255,200,100)" stroke="rgb(255,200,100)" stroke-width="2" />
  <polygon points="1028,92 1015,80 981,130" style="fill:rgb(255,200,100)" stroke="rgb(255,200,100)" stroke-width="2" />
  <polygon points="1041,114 1028,92 981,130" style="fill:rgb(255,200,100)" stroke="rgb(255,200,100)" stroke-width="2" />
  <polygon points="1050,133 1041,114 981,130" style="fill:rgb(255,200,100)" stroke="rgb(255,200,100)" stroke-width="2" />
  <polygon points="984,150 1050,133 981,130" style="fill:rgb(255,200,100)" stroke="rgb(255,200,100)" stroke-width="2" />
  <polygon points="1056,161 984,150 1050,133" style="fill:rgb(255,200,100)" stroke="rgb(255,200,100)" stroke-width="2" />
  <polygon points="986,171 1056,161 984,150" style="fill:rgb(255,200,100)" stroke="rgb(255,200,100)" stroke-width="2" />
  <polygon points="1056,190 986,171 1056,161" style="fill:rgb(255,200,100)" stroke="rgb(255,200,100)" stroke-width="2" />
  <polygon points="982,205 1056,190 986,171" style="fill:rgb(255,200,100)" stroke="rgb(255,200,100)" stroke-width="2" />
  <polygon points="1050,217 982,205 1056,190" style="fill:rgb(255,200,100)" stroke="rgb(255,200,100)" stroke-width="2" />
  <polygon points="976,223 1050,217 982,205" style="fill:rgb(255,200,100)" stroke="rgb(255,200,100)" stroke-width="2" />
  <polygon points="1038,241 976,223 1050,217" style="fill:rgb(255,200,100)" stroke="rgb(255,200,100)" stroke-width="2" />
  <polygon points="1022,264 1038,241 976,223" style="fill:rgb(255,200,100)" stroke="rgb(255,200,100)" stroke-width="2" />
  <polygon points="1004,275 1022,264 976,223" style="fill:rgb(255,200,100)" stroke="rgb(255,200,100)" stroke-width="2" />
  <polygon points="981,282 1004,275 976,223" style="fill:rgb(255,200,100)" stroke="rgb(255,200,100)" stroke-width="2" />
  <polygon points="964,241 981,282 976,223" style="fill:rgb(255,200,100)" stroke="rgb(255,200,100)" stroke-width="2" />
  <polygon points="948,257 964,241 981,282" style="fill:rgb(255,200,100)" stroke="rgb(255,200,100)" stroke-width="2" />
  <polygon points="928,267 948,257 981,282" style="fill:rgb(255,200,100)" stroke="rgb(255,200,100)" stroke-width="2" />
  <polygon points="928,290 928,267 981,282" style="fill:rgb(255,200,100)" stroke="rgb(255,200,100)" stroke-width="2" />
  <polygon points="950,306 928,290 981,282" style="fill:rgb(255,200,100)" stroke="rgb(255,200,100)" stroke-width="2" />
  <polygon points="989,288 950,306 981,282" style="fill:rgb(255,200,100)" stroke="rgb(255,200,100)" stroke-width="2" />
  <polygon points="1002,300 989,288 950,306" style="fill:rgb(255,200,100)" stroke="rgb(255,200,100)" stroke-width="2" />
  <polygon points="962,326 1002,300 950,306" style="fill:rgb(255,200,100)" stroke="rgb(255,200,100)" stroke-width="2" />
  <polygon points="1014,314 962,326 1002,300" style="fill:rgb(255,200,100)" stroke="rgb(255,200,100)" stroke-width="2" />
  <polygon points="971,350 1014,314 962,326" style="fill:rgb(255,200,100)" stroke="rgb(255,200,100)" stroke-width="2" />
  <polygon points="1023,339 971,350 1014,314" style="fill:rgb(255,200,100)" stroke="rgb(255,200,100)" stroke-width="2" />
  <polygon points="1024,366 1023,339 971,350" style="fill:rgb(255,200,100)" stroke="rgb(255,200,100)" stroke-width="2" />
  <polygon points="968,373 1024,366 971,350" style="fill:rgb(255,200,100)" stroke="rgb(255,200,100)" stroke-width="2" />
  <polygon points="1021,388 968,373 1024,366" style="fill:rgb(255,200,100)" stroke="rgb(255,200,100)" stroke-width="2" />
  <polygon points="1004,413 1021,388 968,373" style="fill:rgb(255,200,100)" stroke="rgb(255,200,100)" stroke-width="2" />
  <polygon points="979,432 1004,413 968,373" style="fill:rgb(255,200,100)" stroke="rgb(255,200,100)" stroke-width="2" />
  <polygon points="957,394 979,432 968,373" style="fill:rgb(255,200,100)" stroke="rgb(255,200,100)" stroke-width="2" />
  <polygon points="945,409 957,394 979,432" style="fill:rgb(255,200,100)" stroke="rgb(255,200,100)" stroke-width="2" />
  <polygon points="957,444 945,409 979,432" style="fill:rgb(255,200,100)" stroke="rgb(255,200,100)" stroke-width="2" />
  <polygon points="928,456 957,444 945,409" style="fill:rgb(255,200,100)" stroke="rgb(255,200,100)" stroke-width="2" />
  <polygon points="926,419 928,456 945,409" style="fill:rgb(255,200,100)" stroke="rgb(255,200,100)" stroke-width="2" />
  <polygon points="1104,237 1143,273 1128,227" style="fill:rgb(255,200,100)" stroke="rgb(255,200,100)" stroke-width="2" />
  <polygon points="1167,228 1128,227 1143,273" style="fill:rgb(255,200,100)" stroke="rgb(255,200,100)" stroke-width="2" />
  <polygon points="1158,262 1167,228 1143,273" style="fill:rgb(255,200,100)" stroke="rgb(255,200,100)" stroke-width="2" />
  <polygon points="1198,234 1158,262 1167,228" style="fill:rgb(255,200,100)" stroke="rgb(255,200,100)" stroke-width="2" />
  <polygon points="1171,270 1198,234 1158,262" style="fill:rgb(255,200,100)" stroke="rgb(255,200,100)" stroke-width="2" />
  <polygon points="1181,292 1171,270 1198,234" style="fill:rgb(255,200,100)" stroke="rgb(255,200,100)" stroke-width="2" />
  <polygon points="1227,252 1181,292 1198,234" style="fill:rgb(255,200,100)" stroke="rgb(255,200,100)" stroke-width="2" />
  <polygon points="1238,266 1227,252 1181,292" style="fill:rgb(255,200,100)" stroke="rgb(255,200,100)" stroke-width="2" />
  <polygon points="1245,291 1238,266 1181,292" style="fill:rgb(255,200,100)" stroke="rgb(255,200,100)" stroke-width="2" />
  <polygon points="1247,320 1245,291 1181,292" style="fill:rgb(255,200,100)" stroke="rgb(255,200,100)" stroke-width="2" />
  <polygon points="1178,349 1247,320 1181,292" style="fill:rgb(255,200,100)" stroke="rgb(255,200,100)" stroke-width="2" />
  <polygon points="1245,351 1178,349 1247,320" style="fill:rgb(255,200,100)" stroke="rgb(255,200,100)" stroke-width="2" />
  <polygon points="1236,378 1245,351 1178,349" style="fill:rgb(255,200,100)" stroke="rgb(255,200,100)" stroke-width="2" />
  <polygon points="1218,404 1236,378 1178,349" style="fill:rgb(255,200,100)" stroke="rgb(255,200,100)" stroke-width="2" />
  <polygon points="1199,417 1218,404 1178,349" style="fill:rgb(255,200,100)" stroke="rgb(255,200,100)" stroke-width="2" />
  <polygon points="1168,378 1199,417 1178,349" style="fill:rgb(255,200,100)" stroke="rgb(255,200,100)" stroke-width="2" />
  <polygon points="1161,396 1168,378 1199,417" style="fill:rgb(255,200,100)" stroke="rgb(255,200,100)" stroke-width="2" />
  <polygon points="1150,403 1161,396 1199,417" style="fill:rgb(255,200,100)" stroke="rgb(255,200,100)" stroke-width="2" />
  <polygon points="1183,424 1150,403 1199,417" style="fill:rgb(255,200,100)" stroke="rgb(255,200,100)" stroke-width="2" />
  <polygon points="1153,428 1183,424 1150,403" style="fill:rgb(255,200,100)" stroke="rgb(255,200,100)" stroke-width="2" />
  <polygon points="1128,428 1153,428 1150,403" style="fill:rgb(255,200,100)" stroke="rgb(255,200,100)" stroke-width="2" />
  <polygon points="1136,399 1128,428 1150,403" style="fill:rgb(255,200,100)" stroke="rgb(255,200,100)" stroke-width="2" />
  <polygon points="1128,382 1136,399 1128,428" style="fill:rgb(255,200,100)" stroke="rgb(255,200,100)" stroke-width="2" />
  <polygon points="1111,424 1128,382 1128,428" style="fill:rgb(255,200,100)" stroke="rgb(255,200,100)" stroke-width="2" />
  <polygon points="1093,416 1111,424 1128,382" style="fill:rgb(255,200,100)" stroke="rgb(255,200,100)" stroke-width="2" />
  <polygon points="1077,402 1093,416 1128,382" style="fill:rgb(255,200,100)" stroke="rgb(255,200,100)" stroke-width="2" />
  <polygon points="1066,387 1077,402 1128,382" style="fill:rgb(255,200,100)" stroke="rgb(255,200,100)" stroke-width="2" />
  <polygon points="1057,360 1066,387 1128,382" style="fill:rgb(255,200,100)" stroke="rgb(255,200,100)" stroke-width="2" />
  <polygon points="1125,359 1057,360 1128,382" style="fill:rgb(255,200,100)" stroke="rgb(255,200,100)" stroke-width="2" />
  <polygon points="1126,327 1125,359 1057,360" style="fill:rgb(255,200,100)" stroke="rgb(255,200,100)" stroke-width="2" />
  <polygon points="1054,330 1126,327 1057,360" style="fill:rgb(255,200,100)" stroke="rgb(255,200,100)" stroke-width="2" />
  <polygon points="1131,296 1054,330 1126,327" style="fill:rgb(255,200,100)" stroke="rgb(255,200,100)" stroke-width="2" />
  <polygon points="1058,303 1131,296 1054,330" style="fill:rgb(255,200,100)" stroke="rgb(255,200,100)" stroke-width="2" />
  <polygon points="1065,280 1058,303 1131,296" style="fill:rgb(255,200,100)" stroke="rgb(255,200,100)" stroke-width="2" />
  <polygon points="1079,258 1065,280 1131,296" style="fill:rgb(255,200,100)" stroke="rgb(255,200,100)" stroke-width="2" />
  <polygon points="1137,284 1079,258 1131,296" style="fill:rgb(255,200,100)" stroke="rgb(255,200,100)" stroke-width="2" />
  <polygon points="1143,273 1137,284 1079,258" style="fill:rgb(255,200,100)" stroke="rgb(255,200,100)" stroke-width="2" />
  <polygon points="1091,244 1143,273 1079,258" style="fill:rgb(255,200,100)" stroke="rgb(255,200,100)" stroke-width="2" />
  <polygon points="1104,237 1091,244 1143,273" style="fill:rgb(255,200,100)" stroke="rgb(255,200,100)" stroke-width="2" />
  <polygon points="1310,332 1316,214 1353,330" style="fill:rgb(255,200,100)" stroke="rgb(255,200,100)" stroke-width="2" />
  <polygon points="1328,365 1310,332 1353,330" style="fill:rgb(255,200,100)" stroke="rgb(255,200,100)" stroke-width="2" />
  <polygon points="1364,344 1328,365 1353,330" style="fill:rgb(255,200,100)" stroke="rgb(255,200,100)" stroke-width="2" />
  <polygon points="1416,444 1364,344 1328,365" style="fill:rgb(255,200,100)" stroke="rgb(255,200,100)" stroke-width="2" />
  <polygon points="1359,461 1416,444 1328,365" style="fill:rgb(255,200,100)" stroke="rgb(255,200,100)" stroke-width="2" />
  <polygon points="1427,208 1364,344 1353,330" style="fill:rgb(255,200,100)" stroke="rgb(255,200,100)" stroke-width="2" />
  <polygon points="1388,214 1427,208 1353,330" style="fill:rgb(255,200,100)" stroke="rgb(255,200,100)" stroke-width="2" />
  <polygon points="1345,312 1388,214 1353,330" style="fill:rgb(255,200,100)" stroke="rgb(255,200,100)" stroke-width="2" />
  <polygon points="1260,233 1310,332 1316,214" style="fill:rgb(255,200,100)" stroke="rgb(255,200,100)" stroke-width="2" />
  <polygon points="1247,466 1328,365 1310,332" style="fill:rgb(255,200,100)" stroke="rgb(255,200,100)" stroke-width="2" />
  <polygon points="1287,463 1247,466 1328,365" style="fill:rgb(255,200,100)" stroke="rgb(255,200,100)" stroke-width="2" />
  <polygon points="1522,37 1573,46 1518,351" style="fill:rgb(255,200,100)" stroke="rgb(255,200,100)" stroke-width="2" />
  <polygon points="1468,343 1522,37 1518,351" style="fill:rgb(255,200,100)" stroke="rgb(255,200,100)" stroke-width="2" />
  <polygon points="1467,30 1468,343 1522,37" style="fill:rgb(255,200,100)" stroke="rgb(255,200,100)" stroke-width="2" />
  <polygon points="1475,412 1498,414 1513,384" style="fill:rgb(255,200,100)" stroke="rgb(255,200,100)" stroke-width="2" />  <polygon points="1490,378 1475,412 1513,384" style="fill:rgb(255,200,100)" stroke="rgb(255,200,100)" stroke-width="2" />  <polygon points="1467,380 1490,378 1475,412" style="fill:rgb(255,200,100)" stroke="rgb(255,200,100)" stroke-width="2" />  <polygon points="1447,395 1467,380 1475,412" style="fill:rgb(255,200,100)" stroke="rgb(255,200,100)" stroke-width="2" />  <polygon points="1439,416 1447,395 1475,412" style="fill:rgb(255,200,100)" stroke="rgb(255,200,100)" stroke-width="2" />  <polygon points="1474,435 1439,416 1475,412" style="fill:rgb(255,200,100)" stroke="rgb(255,200,100)" stroke-width="2" />  <polygon points="1444,444 1474,435 1439,416" style="fill:rgb(255,200,100)" stroke="rgb(255,200,100)" stroke-width="2" />  <polygon points="1457,460 1444,444 1474,435" style="fill:rgb(255,200,100)" stroke="rgb(255,200,100)" stroke-width="2" />  <polygon points="1497,435 1457,460 1474,435" style="fill:rgb(255,200,100)" stroke="rgb(255,200,100)" stroke-width="2" />  <polygon points="1475,468 1497,435 1457,460" style="fill:rgb(255,200,100)" stroke="rgb(255,200,100)" stroke-width="2" />  <polygon points="1502,466 1475,468 1497,435" style="fill:rgb(255,200,100)" stroke="rgb(255,200,100)" stroke-width="2" />  <polygon points="1521,457 1502,466 1497,435" style="fill:rgb(255,200,100)" stroke="rgb(255,200,100)" stroke-width="2" />  <polygon points="1529,434 1521,457 1497,435" style="fill:rgb(255,200,100)" stroke="rgb(255,200,100)" stroke-width="2" />  <polygon points="1498,414 1529,434 1497,435" style="fill:rgb(255,200,100)" stroke="rgb(255,200,100)" stroke-width="2" />  <polygon points="1529,409 1498,414 1529,434" style="fill:rgb(255,200,100)" stroke="rgb(255,200,100)" stroke-width="2" />  <polygon points="1522,394 1529,409 1498,414" style="fill:rgb(255,200,100)" stroke="rgb(255,200,100)" stroke-width="2" />  <polygon points="1513,384 1522,394 1498,414" style="fill:rgb(255,200,100)" stroke="rgb(255,200,100)" stroke-width="2" />
</svg>